# Blender v2.79 (sub 0) OBJ File: 'keypad.blend'
# www.blender.org
mtllib keypad.mtl
o Cube.001
v -3.524680 0.372937 -3.955571
v -1.524680 0.372937 -3.955571
v -0.524680 0.372937 -3.955571
v 1.475319 0.372937 -3.955571
v 2.475319 0.372937 -3.955571
v 4.475318 0.372937 -3.955571
v -3.524680 0.372937 -1.955572
v -1.524680 0.372937 -1.955572
v -0.524680 0.372937 -1.955572
v 1.475319 0.372937 -1.955572
v 2.475319 0.372937 -1.955572
v 4.475318 0.372937 -1.955572
v -3.524680 0.372937 -0.955572
v -1.524680 0.372937 -0.955572
v -0.524680 0.372937 -0.955572
v 1.475319 0.372937 -0.955572
v 2.475319 0.372937 -0.955572
v 4.475318 0.372937 -0.955572
v -3.524680 0.372937 1.044428
v -1.524680 0.372937 1.044428
v -0.524680 0.372937 1.044428
v 1.475319 0.372937 1.044428
v 2.475319 0.372937 1.044428
v 4.475318 0.372937 1.044428
v -3.524680 0.372937 2.044428
v -1.524680 0.372937 2.044428
v -0.524680 0.372937 2.044428
v 1.475319 0.372937 2.044428
v 2.475319 0.372937 2.044428
v 4.475318 0.372937 2.044428
v -3.524680 0.372937 4.044427
v -1.524680 0.372937 4.044427
v -0.524680 0.372937 4.044427
v 1.475319 0.372937 4.044427
v 2.475319 0.372937 4.044427
v 4.475318 0.372937 4.044427
v -0.524680 0.372937 5.044427
v 1.475319 0.372937 5.044427
v -0.524680 0.372937 7.044426
v 1.475319 0.372937 7.044426
v 1.475319 0.622937 -1.955572
v 1.475319 0.622937 -3.955571
v -0.524680 0.622937 -3.955571
v -0.524680 0.622937 -1.955572
v -3.524680 0.622937 -3.955571
v -1.524680 0.622937 -3.955571
v 2.475319 0.622937 -3.955571
v 4.475318 0.622937 -3.955571
v -3.524680 0.622937 -1.955572
v -1.524680 0.622937 -1.955572
v 2.475319 0.622937 -1.955572
v 4.475318 0.622937 -1.955572
v -3.524680 0.622937 -0.955572
v -1.524680 0.622937 -0.955572
v 2.475319 0.622937 1.044428
v 2.475319 0.622937 -0.955572
v 1.475319 0.622937 -0.955572
v 1.475319 0.622937 1.044428
v -0.524680 0.622937 -0.955572
v 4.475318 0.622937 -0.955572
v 4.475318 0.622937 1.044428
v -3.524680 0.622937 1.044428
v -1.524680 0.622937 1.044428
v -0.524680 0.622937 1.044428
v 4.475318 0.622937 4.044427
v 4.475318 0.622937 2.044428
v 2.475319 0.622937 2.044428
v 2.475319 0.622937 4.044427
v -3.524680 0.622937 2.044428
v -1.524680 0.622937 2.044428
v 1.475319 0.622937 2.044428
v -0.524680 0.622937 2.044428
v -3.524680 0.622937 4.044427
v -1.524680 0.622937 4.044427
v 1.475319 0.622937 4.044427
v -0.524680 0.622937 4.044427
v 1.475319 0.622937 7.044426
v 1.475319 0.622937 5.044427
v -0.524680 0.622937 5.044427
v -0.524680 0.622937 7.044426
vn -1.0000 0.0000 0.0000
vn 1.0000 0.0000 0.0000
vn 0.0000 0.0000 -1.0000
vn 0.0000 0.0000 1.0000
vn 0.0000 1.0000 0.0000
usemtl Material.002
s off
f 15//1 21//1 64//1 59//1
f 24//2 18//2 60//2 61//2
f 20//2 14//2 54//2 63//2
f 26//3 25//3 69//3 70//3
f 4//3 3//3 43//3 42//3
f 29//1 35//1 68//1 67//1
f 40//2 38//2 78//2 77//2
f 33//4 34//4 75//4 76//4
f 30//3 29//3 67//3 66//3
f 7//4 8//4 50//4 49//4
f 46//5 45//5 49//5 50//5
f 42//5 43//5 44//5 41//5
f 48//5 47//5 51//5 52//5
f 60//5 56//5 55//5 61//5
f 57//5 59//5 64//5 58//5
f 54//5 53//5 62//5 63//5
f 66//5 67//5 68//5 65//5
f 71//5 72//5 76//5 75//5
f 70//5 69//5 73//5 74//5
f 78//5 79//5 80//5 77//5
f 1//1 7//1 49//1 45//1
f 18//3 17//3 56//3 60//3
f 21//4 22//4 58//4 64//4
f 37//1 39//1 80//1 79//1
f 10//2 4//2 42//2 41//2
f 27//1 33//1 76//1 72//1
f 8//2 2//2 46//2 50//2
f 14//3 13//3 53//3 54//3
f 34//2 28//2 71//2 75//2
f 35//4 36//4 65//4 68//4
f 38//3 37//3 79//3 78//3
f 32//2 26//2 70//2 74//2
f 6//3 5//3 47//3 48//3
f 9//4 10//4 41//4 44//4
f 17//1 23//1 55//1 56//1
f 3//1 9//1 44//1 43//1
f 31//4 32//4 74//4 73//4
f 13//1 19//1 62//1 53//1
f 2//3 1//3 45//3 46//3
f 12//2 6//2 48//2 52//2
f 23//4 24//4 61//4 55//4
f 28//3 27//3 72//3 71//3
f 5//1 11//1 51//1 47//1
f 22//2 16//2 57//2 58//2
f 19//4 20//4 63//4 62//4
f 39//4 40//4 77//4 80//4
f 36//2 30//2 66//2 65//2
f 25//1 31//1 73//1 69//1
f 11//4 12//4 52//4 51//4
f 16//3 15//3 59//3 57//3
o Cube
v -5.024680 -0.627063 -7.455571
v -5.024680 0.372937 -7.455571
v -5.024680 -0.627063 -9.455570
v -5.024680 0.372937 -9.455570
v -3.524680 -0.627063 -7.455571
v -3.524680 0.372937 -7.455571
v -3.524680 -0.627063 -9.455570
v -3.524680 0.372937 -9.455570
v -1.524680 0.372937 -9.455570
v -1.524680 -0.627063 -9.455570
v -1.524680 -0.627063 -7.455571
v -1.524680 0.372937 -7.455571
v -0.524680 0.372937 -9.455570
v -0.524680 -0.627063 -9.455570
v -0.524680 -0.627063 -7.455571
v -0.524680 0.372937 -7.455571
v 1.475319 0.372937 -9.455570
v 1.475319 -0.627063 -9.455570
v 1.475319 -0.627063 -7.455571
v 1.475319 0.372937 -7.455571
v 2.475319 0.372937 -9.455570
v 2.475319 -0.627063 -9.455570
v 2.475319 -0.627063 -7.455571
v 2.475319 0.372937 -7.455571
v 4.475318 0.372937 -9.455570
v 4.475318 -0.627063 -9.455570
v 4.475318 -0.627063 -7.455571
v 4.475318 0.372937 -7.455571
v 5.975319 0.372937 -9.455570
v 5.975319 -0.627063 -9.455570
v 5.975319 -0.627063 -7.455571
v 5.975319 0.372937 -7.455571
v -5.024680 -0.627063 -5.455571
v -5.024680 0.372937 -5.455571
v -3.524680 0.372937 -5.455571
v -3.524680 -0.627063 -5.455571
v -1.524680 0.372937 -5.455571
v -1.524680 -0.627063 -5.455571
v -0.524680 0.372937 -5.455571
v -0.524680 -0.627063 -5.455571
v 1.475319 0.372937 -5.455571
v 1.475319 -0.627063 -5.455571
v 2.475319 0.372937 -5.455571
v 2.475319 -0.627063 -5.455571
v 4.475318 0.372937 -5.455571
v 4.475318 -0.627063 -5.455571
v 5.975319 0.372937 -5.455571
v 5.975319 -0.627063 -5.455571
v -5.024680 -0.627063 -3.955571
v -5.024680 0.372937 -3.955571
v -3.524680 0.372937 -3.955571
v -3.524680 -0.627063 -3.955571
v -1.524680 0.372937 -3.955571
v -1.524680 -0.627063 -3.955571
v -0.524680 0.372937 -3.955571
v -0.524680 -0.627063 -3.955571
v 1.475319 0.372937 -3.955571
v 1.475319 -0.627063 -3.955571
v 2.475319 0.372937 -3.955571
v 2.475319 -0.627063 -3.955571
v 4.475318 0.372937 -3.955571
v 4.475318 -0.627063 -3.955571
v 5.975319 0.372937 -3.955571
v 5.975319 -0.627063 -3.955571
v -5.024680 -0.627063 -1.955572
v -5.024680 0.372937 -1.955572
v -3.524680 0.372937 -1.955572
v -3.524680 -0.627063 -1.955572
v -1.524680 0.372937 -1.955572
v -1.524680 -0.627063 -1.955572
v -0.524680 0.372937 -1.955572
v -0.524680 -0.627063 -1.955572
v 1.475319 0.372937 -1.955572
v 1.475319 -0.627063 -1.955572
v 2.475319 0.372937 -1.955572
v 2.475319 -0.627063 -1.955572
v 4.475318 0.372937 -1.955572
v 4.475318 -0.627063 -1.955572
v 5.975319 0.372937 -1.955572
v 5.975319 -0.627063 -1.955572
v -5.024680 -0.627063 -0.955572
v -5.024680 0.372937 -0.955572
v -3.524680 0.372937 -0.955572
v -3.524680 -0.627063 -0.955572
v -1.524680 0.372937 -0.955572
v -1.524680 -0.627063 -0.955572
v -0.524680 0.372937 -0.955572
v -0.524680 -0.627063 -0.955572
v 1.475319 0.372937 -0.955572
v 1.475319 -0.627063 -0.955572
v 2.475319 0.372937 -0.955572
v 2.475319 -0.627063 -0.955572
v 4.475318 0.372937 -0.955572
v 4.475318 -0.627063 -0.955572
v 5.975319 0.372937 -0.955572
v 5.975319 -0.627063 -0.955572
v -5.024680 -0.627063 1.044428
v -5.024680 0.372937 1.044428
v -3.524680 0.372937 1.044428
v -3.524680 -0.627063 1.044428
v -1.524680 0.372937 1.044428
v -1.524680 -0.627063 1.044428
v -0.524680 0.372937 1.044428
v -0.524680 -0.627063 1.044428
v 1.475319 0.372937 1.044428
v 1.475319 -0.627063 1.044428
v 2.475319 0.372937 1.044428
v 2.475319 -0.627063 1.044428
v 4.475318 0.372937 1.044428
v 4.475318 -0.627063 1.044428
v 5.975319 0.372937 1.044428
v 5.975319 -0.627063 1.044428
v -5.024680 -0.627063 2.044428
v -5.024680 0.372937 2.044428
v -3.524680 0.372937 2.044428
v -3.524680 -0.627063 2.044428
v -1.524680 0.372937 2.044428
v -1.524680 -0.627063 2.044428
v -0.524680 0.372937 2.044428
v -0.524680 -0.627063 2.044428
v 1.475319 0.372937 2.044428
v 1.475319 -0.627063 2.044428
v 2.475319 0.372937 2.044428
v 2.475319 -0.627063 2.044428
v 4.475318 0.372937 2.044428
v 4.475318 -0.627063 2.044428
v 5.975319 0.372937 2.044428
v 5.975319 -0.627063 2.044428
v -5.024680 -0.627063 4.044427
v -5.024680 0.372937 4.044427
v -3.524680 0.372937 4.044427
v -3.524680 -0.627063 4.044427
v -1.524680 0.372937 4.044427
v -1.524680 -0.627063 4.044427
v -0.524680 0.372937 4.044427
v -0.524680 -0.627063 4.044427
v 1.475319 0.372937 4.044427
v 1.475319 -0.627063 4.044427
v 2.475319 0.372937 4.044427
v 2.475319 -0.627063 4.044427
v 4.475318 0.372937 4.044427
v 4.475318 -0.627063 4.044427
v 5.975319 0.372937 4.044427
v 5.975319 -0.627063 4.044427
v -5.024680 -0.627063 5.044427
v -5.024680 0.372937 5.044427
v -3.524680 0.372937 5.044427
v -3.524680 -0.627063 5.044427
v -1.524680 0.372937 5.044427
v -1.524680 -0.627063 5.044427
v -0.524680 0.372937 5.044427
v -0.524680 -0.627063 5.044427
v 1.475319 0.372937 5.044427
v 1.475319 -0.627063 5.044427
v 2.475319 0.372937 5.044427
v 2.475319 -0.627063 5.044427
v 4.475318 0.372937 5.044427
v 4.475318 -0.627063 5.044427
v 5.975319 0.372937 5.044427
v 5.975319 -0.627063 5.044427
v -5.024680 -0.627063 7.044426
v -5.024680 0.372937 7.044426
v -3.524680 0.372937 7.044426
v -3.524680 -0.627063 7.044426
v -1.524680 0.372937 7.044426
v -1.524680 -0.627063 7.044426
v -0.524680 0.372937 7.044426
v -0.524680 -0.627063 7.044426
v 1.475319 0.372937 7.044426
v 1.475319 -0.627063 7.044426
v 2.475319 0.372937 7.044426
v 2.475319 -0.627063 7.044426
v 4.475318 0.372937 7.044426
v 4.475318 -0.627063 7.044426
v 5.975319 0.372937 7.044426
v 5.975319 -0.627063 7.044426
v -5.024680 -0.627063 8.044426
v -5.024680 0.372937 8.044426
v -3.524680 0.372937 8.044426
v -3.524680 -0.627063 8.044426
v -1.524680 0.372937 8.044426
v -1.524680 -0.627063 8.044426
v -0.524680 0.372937 8.044426
v -0.524680 -0.627063 8.044426
v 1.475319 0.372937 8.044426
v 1.475319 -0.627063 8.044426
v 2.475319 0.372937 8.044426
v 2.475319 -0.627063 8.044426
v 4.475318 0.372937 8.044426
v 4.475318 -0.627063 8.044426
v 5.975319 0.372937 8.044426
v 5.975319 -0.627063 8.044426
v -0.524680 -0.043440 -5.455571
v -0.524680 -0.043440 -7.455571
v -3.524680 -0.043440 -7.455571
v -1.524680 -0.043440 -7.455571
v -1.524680 -0.043440 -5.455571
v -3.524680 -0.043440 -5.455571
v 1.475319 -0.043440 -7.455571
v 2.475319 -0.043440 -7.455571
v 4.475318 -0.043440 -7.455571
v 1.475319 -0.043440 -5.455571
v 2.475319 -0.043440 -5.455571
v 4.475318 -0.043440 -5.455571
vn -1.0000 0.0000 0.0000
vn 0.0000 0.0000 -1.0000
vn 0.0000 1.0000 0.0000
vn 1.0000 0.0000 0.0000
vn 0.0000 -1.0000 0.0000
vn 0.0000 0.0000 1.0000
usemtl Material
s off
f 81//6 82//6 84//6 83//6
f 83//7 84//7 88//7 87//7
f 88//8 86//8 92//8 89//8
f 111//9 112//9 127//9 128//9
f 83//10 87//10 85//10 81//10
f 88//8 84//8 82//8 86//8
f 89//8 92//8 96//8 93//8
f 87//7 88//7 89//7 90//7
f 119//7 121//7 282//7 273//7
f 85//10 87//10 90//10 91//10
f 81//10 85//10 116//10 113//10
f 90//7 89//7 93//7 94//7
f 95//10 99//10 122//10 120//10
f 91//10 90//10 94//10 95//10
f 97//8 100//8 104//8 101//8
f 95//10 94//10 98//10 99//10
f 93//8 96//8 100//8 97//8
f 94//7 93//7 97//7 98//7
f 101//8 104//8 108//8 105//8
f 98//7 97//7 101//7 102//7
f 115//7 117//7 277//7 278//7
f 99//10 98//10 102//10 103//10
f 108//11 104//11 280//11 281//11
f 102//7 101//7 105//7 106//7
f 82//6 81//6 113//6 114//6
f 103//10 102//10 106//10 107//10
f 110//9 109//9 112//9 111//9
f 107//10 106//10 110//10 111//10
f 105//8 108//8 112//8 109//8
f 106//7 105//7 109//7 110//7
f 118//10 120//10 136//10 134//10
f 119//8 117//8 133//8 135//8
f 122//10 124//10 140//10 138//10
f 114//6 113//6 129//6 130//6
f 123//8 121//8 137//8 139//8
f 127//8 125//8 141//8 143//8
f 116//10 118//10 134//10 132//10
f 86//9 115//9 278//9 275//9
f 86//8 82//8 114//8 115//8
f 96//11 92//11 276//11 274//11
f 107//10 111//10 128//10 126//10
f 85//10 91//10 118//10 116//10
f 91//10 95//10 120//10 118//10
f 112//8 108//8 125//8 127//8
f 99//10 103//10 124//10 122//10
f 103//10 107//10 126//10 124//10
f 143//8 141//8 157//8 159//8
f 132//10 134//10 150//10 148//10
f 142//10 144//10 160//10 158//10
f 144//9 143//9 159//9 160//9
f 136//10 138//10 154//10 152//10
f 113//10 116//10 132//10 129//10
f 125//8 123//8 139//8 141//8
f 115//8 114//8 130//8 131//8
f 124//10 126//10 142//10 140//10
f 120//10 122//10 138//10 136//10
f 128//9 127//9 143//9 144//9
f 121//8 119//8 135//8 137//8
f 117//8 115//8 131//8 133//8
f 126//10 128//10 144//10 142//10
f 160//9 159//9 175//9 176//9
f 152//10 154//10 170//10 168//10
f 156//10 158//10 174//10 172//10
f 147//8 146//8 162//8 163//8
f 157//8 155//8 171//8 173//8
f 145//10 148//10 164//10 161//10
f 150//10 152//10 168//10 166//10
f 139//8 137//8 153//8 155//8
f 130//6 129//6 145//6 146//6
f 138//10 140//10 156//10 154//10
f 135//8 133//8 149//8 151//8
f 134//10 136//10 152//10 150//10
f 129//10 132//10 148//10 145//10
f 131//8 130//8 146//8 147//8
f 140//10 142//10 158//10 156//10
f 161//10 164//10 180//10 177//10
f 166//10 168//10 184//10 182//10
f 167//8 165//8 181//8 183//8
f 170//10 172//10 188//10 186//10
f 162//6 161//6 177//6 178//6
f 171//8 169//8 185//8 187//8
f 175//8 173//8 189//8 191//8
f 153//8 151//8 167//8 169//8
f 149//8 147//8 163//8 165//8
f 158//10 160//10 176//10 174//10
f 148//10 150//10 166//10 164//10
f 159//8 157//8 173//8 175//8
f 155//8 153//8 169//8 171//8
f 146//6 145//6 161//6 162//6
f 154//10 156//10 172//10 170//10
f 151//8 149//8 165//8 167//8
f 187//8 185//8 201//8 203//8
f 191//8 189//8 205//8 207//8
f 180//10 182//10 198//10 196//10
f 190//10 192//10 208//10 206//10
f 181//8 179//8 195//8 197//8
f 185//8 183//8 199//8 201//8
f 192//9 191//9 207//9 208//9
f 163//8 162//8 178//8 179//8
f 172//10 174//10 190//10 188//10
f 168//10 170//10 186//10 184//10
f 176//9 175//9 191//9 192//9
f 174//10 176//10 192//10 190//10
f 164//10 166//10 182//10 180//10
f 208//9 207//9 223//9 224//9
f 200//10 202//10 218//10 216//10
f 204//10 206//10 222//10 220//10
f 195//8 194//8 210//8 211//8
f 193//10 196//10 212//10 209//10
f 198//10 200//10 216//10 214//10
f 178//6 177//6 193//6 194//6
f 186//10 188//10 204//10 202//10
f 183//8 181//8 197//8 199//8
f 182//10 184//10 200//10 198//10
f 177//10 180//10 196//10 193//10
f 189//8 187//8 203//8 205//8
f 179//8 178//8 194//8 195//8
f 188//10 190//10 206//10 204//10
f 184//10 186//10 202//10 200//10
f 221//8 219//8 235//8 237//8
f 209//10 212//10 228//10 225//10
f 214//10 216//10 232//10 230//10
f 215//8 213//8 229//8 231//8
f 218//10 220//10 236//10 234//10
f 210//6 209//6 225//6 226//6
f 219//8 217//8 233//8 235//8
f 206//10 208//10 224//10 222//10
f 196//10 198//10 214//10 212//10
f 207//8 205//8 221//8 223//8
f 203//8 201//8 217//8 219//8
f 194//6 193//6 209//6 210//6
f 202//10 204//10 220//10 218//10
f 199//8 197//8 213//8 215//8
f 235//8 233//8 249//8 251//8
f 239//8 237//8 253//8 255//8
f 228//10 230//10 246//10 244//10
f 238//10 240//10 256//10 254//10
f 229//8 227//8 243//8 245//8
f 240//9 239//9 255//9 256//9
f 211//8 210//8 226//8 227//8
f 220//10 222//10 238//10 236//10
f 216//10 218//10 234//10 232//10
f 224//9 223//9 239//9 240//9
f 217//8 215//8 231//8 233//8
f 213//8 211//8 227//8 229//8
f 222//10 224//10 240//10 238//10
f 212//10 214//10 230//10 228//10
f 223//8 221//8 237//8 239//8
f 256//9 255//9 271//9 272//9
f 248//10 250//10 266//10 264//10
f 252//10 254//10 270//10 268//10
f 243//8 242//8 258//8 259//8
f 253//8 251//8 267//8 269//8
f 241//10 244//10 260//10 257//10
f 246//10 248//10 264//10 262//10
f 226//6 225//6 241//6 242//6
f 234//10 236//10 252//10 250//10
f 231//8 229//8 245//8 247//8
f 230//10 232//10 248//10 246//10
f 225//10 228//10 244//10 241//10
f 237//8 235//8 251//8 253//8
f 227//8 226//8 242//8 243//8
f 236//10 238//10 254//10 252//10
f 232//10 234//10 250//10 248//10
f 260//11 259//11 258//11 257//11
f 259//11 260//11 262//11 261//11
f 263//11 264//11 266//11 265//11
f 261//11 262//11 264//11 263//11
f 265//11 266//11 268//11 267//11
f 269//11 270//11 272//11 271//11
f 267//11 268//11 270//11 269//11
f 249//8 247//8 263//8 265//8
f 245//8 243//8 259//8 261//8
f 254//10 256//10 272//10 270//10
f 244//10 246//10 262//10 260//10
f 255//8 253//8 269//8 271//8
f 251//8 249//8 265//8 267//8
f 242//6 241//6 257//6 258//6
f 250//10 252//10 268//10 266//10
f 247//8 245//8 261//8 263//8
f 280//8 279//8 282//8 283//8
f 274//8 276//8 277//8 273//8
f 276//8 275//8 278//8 277//8
f 279//8 274//8 273//8 282//8
f 281//8 280//8 283//8 284//8
f 123//7 125//7 284//7 283//7
f 100//11 96//11 274//11 279//11
f 92//11 86//11 275//11 276//11
f 121//7 123//7 283//7 282//7
f 104//11 100//11 279//11 280//11
f 125//6 108//6 281//6 284//6
f 117//7 119//7 273//7 277//7
